<?xml version="1.0" standalone="no"?>
<!DOCTYPE svg PUBLIC "-//W3C//DTD SVG 20010904//EN"
 "http://www.w3.org/TR/2001/REC-SVG-20010904/DTD/svg10.dtd">
<svg version="1.0" xmlns="http://www.w3.org/2000/svg"
 width="2500.000000pt" height="2500.000000pt" viewBox="0 0 2500.000000 2500.000000"
 preserveAspectRatio="xMidYMid meet">
<metadata>
Created by potrace 1.11, written by Peter Selinger 2001-2013
</metadata>
<g transform="translate(0.000000,2500.000000) scale(0.100000,-0.100000)"
fill="#000000" stroke="none">
<path d="M10985 21274 c-3935 -35 -7122 -169 -7977 -334 -571 -110 -1100 -371
-1563 -770 -587 -507 -937 -1257 -1129 -2420 -62 -375 -171 -1310 -201 -1730
-85 -1173 -122 -2363 -111 -3615 9 -1140 33 -1854 112 -3395 3 -63 16 -248 30
-410 80 -973 155 -1466 299 -1972 222 -779 483 -1285 851 -1652 426 -423 971
-708 1634 -852 876 -190 2429 -281 6100 -354 278 -6 710 -15 960 -20 1493 -32
3788 -36 5180 -10 1635 31 3150 88 4640 176 570 33 1423 88 1690 109 102 8
232 17 290 20 197 12 404 56 645 138 363 123 673 290 985 531 135 104 425 393
517 516 164 217 292 458 431 805 325 816 439 1516 582 3560 39 552 44 896 44
2915 0 2093 -4 2281 -54 3090 -82 1312 -153 1864 -332 2574 -174 691 -493
1408 -773 1734 -446 521 -1159 916 -1875 1041 -821 144 -3244 256 -6725 311
-621 10 -3604 20 -4250 14z m572 -5830 c890 -465 1668 -872 1728 -904 61 -32
430 -225 820 -430 391 -205 1005 -529 1365 -720 360 -191 773 -410 917 -486
145 -76 263 -142 263 -145 1 -22 -1380 -748 -2710 -1424 -322 -163 -736 -374
-920 -468 -384 -195 -1064 -543 -1285 -657 -316 -164 -664 -344 -760 -395
-316 -167 -641 -340 -790 -420 -93 -51 -189 -102 -212 -114 l-43 -21 0 3515
c0 1933 2 3515 5 3515 2 0 732 -381 1622 -846z"/>
</g>
</svg>
